<?xml version="1.0" encoding="iso-8859-1"?>
<!-- Generator: Adobe Illustrator 19.0.0, SVG Export Plug-In . SVG Version: 6.00 Build 0)  -->
<svg version="1.1" id="Layer_1" xmlns="http://www.w3.org/2000/svg" xmlns:xlink="http://www.w3.org/1999/xlink" x="0px" y="0px"
	 viewBox="0 0 512 512" style="enable-background:new 0 0 512 512;" xml:space="preserve">
<polygon style="fill:#10A7C9;" points="403.848,129.756 397.898,278.496 198.587,335.017 255.108,135.706 "/>
<g>
	<polygon style="fill:#E3451E;" points="326.696,207.294 403.848,129.756 255.108,135.706 	"/>
	<polygon style="fill:#E3451E;" points="198.587,335.017 397.898,278.496 326.367,207.622 	"/>
</g>
<path style="fill:#F0ECE7;" d="M197.002,58.276c-9.714,0-18.571,3.662-25.273,9.676c0.012-0.421,0.032-0.839,0.032-1.262
	c0-25.558-20.718-46.277-46.277-46.277c-23.885,0-43.538,18.096-46.01,41.325c-7.314-4.842-16.08-7.669-25.509-7.669
	c-24.139,0-43.951,18.484-46.078,42.07h226.978C234.865,75.227,217.913,58.276,197.002,58.276z"/>
<path style="fill:#E2D9D0;" d="M28.723,83.516c0.964-10.695,5.574-20.333,12.566-27.683C23.198,60.978,9.626,76.848,7.887,96.138
	h226.978c0-4.427-0.767-8.673-2.163-12.621H28.723V83.516z"/>
<path style="fill:#F0ECE7;" d="M466.249,390.627c-9.714,0-18.571,3.662-25.273,9.676c0.012-0.421,0.032-0.839,0.032-1.262
	c0-25.558-20.718-46.277-46.277-46.277c-23.885,0-43.538,18.096-46.01,41.325c-7.314-4.842-16.08-7.669-25.509-7.669
	c-24.139,0-43.951,18.484-46.078,42.07h226.978C504.111,407.578,487.159,390.627,466.249,390.627z"/>
<path style="fill:#E2D9D0;" d="M298.168,415.868c0.968-10.73,5.604-20.397,12.635-27.755c-18.224,5.063-31.922,20.992-33.67,40.375
	h226.978c0-4.427-0.767-8.673-2.163-12.621H298.168z"/>
<path d="M218.467,337.578l181.582-51.493c3.281-0.931,5.593-3.865,5.73-7.274l5.95-148.739c0.182-4.533-3.663-8.381-8.197-8.197
	l-148.739,5.95c-3.409,0.137-6.343,2.448-7.274,5.73l-51.493,181.582c-8.038-13.458-18.092-29.777-21.609-33.294
	c-7.996-7.994-21.007-7.995-29.005,0c-7.995,7.996-7.995,21.008,0,29.005c3.436,3.436,19.1,13.115,32.37,21.056
	c-6.833,5.286-16.34,10.748-28.4,13.183c-8.743,1.766-17.71,1.763-26.656-0.006c-4.269-0.841-8.423,1.933-9.269,6.207
	s1.934,8.423,6.207,9.269c5.493,1.086,10.999,1.63,16.48,1.63c4.847,0,9.674-0.45,14.455-1.301
	c-4.337,6.702-7.488,13.974-9.236,21.118c-1.394,5.693-2.026,11.411-2.638,16.941c-0.906,8.188-1.762,15.922-4.954,22.449
	c-8.2,16.767-23.772,17.86-48.458,17.684c-14.187-0.107-28.853-0.214-41.462,5.46c-14.135,6.358-25.294,19.128-31.421,35.957
	c-1.005,2.761-1.832,5.917-2.529,9.651c-0.768,4.113,1.934,8.223,6.017,9.142c4.305,0.969,8.681-1.91,9.491-6.247
	c0.536-2.872,1.14-5.21,1.845-7.148c4.658-12.793,12.85-22.371,23.069-26.967c9.468-4.26,21.803-4.171,34.874-4.071
	c23.246,0.171,49.591,0.367,62.746-26.528c4.399-8.995,5.449-18.476,6.463-27.646c0.582-5.26,1.132-10.229,2.281-14.925
	c3.454-14.113,14.449-29.488,29.458-35.332c-5.422,7.925-10.567,18.165-13.093,30.677c-2.179,10.794-2.181,21.843-0.006,32.84
	c0.856,4.33,5.263,7.16,9.558,6.145c4.073-0.962,6.73-5.102,5.918-9.206c-1.769-8.945-1.771-17.913-0.006-26.656
	c2.435-12.06,7.896-21.567,13.183-28.4c7.941,13.27,17.621,28.934,21.057,32.37c7.893,7.894,21.111,7.892,29.005,0
	c7.995-7.996,7.995-21.008,0-29.005C248.244,355.67,231.925,345.617,218.467,337.578z M395.16,149.6l-4.424,110.578l-53.077-53.077
	L395.16,149.6z M326.503,195.945l-53.077-53.077l110.577-4.424L326.503,195.945z M382.818,274.572l-157.215,44.583l100.9-100.9
	L382.818,274.572z M259.031,150.784l56.317,56.317l-100.9,100.901L259.031,150.784z M156.569,299.691
	c-1.662-1.661-1.836-4.391-0.393-6.247c1.707-2.198,5.086-2.445,7.064-0.469c1.591,1.686,6.538,9.374,12.629,19.324
	C165.921,306.21,158.241,301.27,156.569,299.691z M240.606,377.035c-1.846,1.845-4.849,1.846-6.67,0.023
	c-1.591-1.686-6.539-9.374-12.629-19.324c9.947,6.089,17.626,11.028,19.3,12.606C242.451,372.188,242.451,375.191,240.606,377.035z"
	/>
<path d="M145.992,96.138c0-4.356-3.532-7.888-7.888-7.888h-120.6c5.048-15.461,19.468-26.294,36.461-26.294
	c7.556,0,14.871,2.199,21.155,6.359c4.853,3.21,11.584,0.027,12.198-5.743c2.079-19.538,18.487-34.271,38.166-34.271
	c21.167,0,38.389,17.221,38.389,38.389c0,1.634,0.012,3.132,0.734,4.652c0.787,1.653,2.148,3.002,3.81,3.771
	c2.86,1.322,6.234,0.816,8.579-1.289c5.505-4.939,12.609-7.66,20.005-7.66c13.8,0,25.45,9.373,28.922,22.087h-58.37
	c-4.356,0-7.888,3.532-7.888,7.888s3.532,7.888,7.888,7.888h67.312c4.356,0,7.888-3.532,7.888-7.888
	c0-25.227-20.524-45.751-45.751-45.751c-6.53,0-12.912,1.389-18.758,4.02c-5.579-23.969-27.117-41.883-52.761-41.883
	c-23.964,0-44.49,15.491-51.55,37.463c-6.314-2.508-13.071-3.807-19.968-3.807c-13.609,0-26.618,5.068-36.631,14.27
	C7.385,69.593,1.24,82.017,0.031,95.43c-0.41,4.549,3.289,8.596,7.857,8.596h130.217
	C142.461,104.026,145.992,100.495,145.992,96.138z"/>
<path d="M466.249,382.739c-6.53,0-12.911,1.389-18.759,4.02c-5.578-23.969-27.117-41.883-52.76-41.883
	c-23.964,0-44.491,15.491-51.55,37.463c-6.315-2.508-13.072-3.807-19.968-3.807c-13.607,0-26.619,5.068-36.631,14.27
	c-9.948,9.143-16.094,21.565-17.302,34.979c-0.411,4.549,3.289,8.596,7.857,8.596h46.078c4.357,0,7.888-3.532,7.888-7.888
	s-3.531-7.888-7.888-7.888h-36.461c5.049-15.461,19.468-26.294,36.461-26.294c7.556,0,14.871,2.199,21.155,6.359
	c4.852,3.212,11.584,0.025,12.198-5.743c2.079-19.538,18.487-34.271,38.166-34.271c21.167,0,38.389,17.221,38.389,38.389
	c0,1.634,0.012,3.133,0.734,4.652c0.788,1.653,2.149,3.002,3.812,3.77c2.863,1.322,6.234,0.814,8.578-1.289
	c5.505-4.939,12.609-7.66,20.005-7.66c13.799,0,25.45,9.373,28.922,22.087H352.66c-4.357,0-7.888,3.532-7.888,7.888
	s3.531,7.888,7.888,7.888h151.451c4.357,0,7.888-3.532,7.888-7.888C512,403.263,491.476,382.739,466.249,382.739z"/>
<g>
</g>
<g>
</g>
<g>
</g>
<g>
</g>
<g>
</g>
<g>
</g>
<g>
</g>
<g>
</g>
<g>
</g>
<g>
</g>
<g>
</g>
<g>
</g>
<g>
</g>
<g>
</g>
<g>
</g>
</svg>
